<?xml version="1.0" encoding="iso-8859-1"?>
<!-- Generator: Adobe Illustrator 19.0.0, SVG Export Plug-In . SVG Version: 6.00 Build 0)  -->
<svg version="1.1" id="Capa_1" xmlns="http://www.w3.org/2000/svg" xmlns:xlink="http://www.w3.org/1999/xlink" x="0px" y="0px"
	 viewBox="0 0 512 512" style="enable-background:new 0 0 512 512;" xml:space="preserve">
<g>
	<g>
		<path d="M467,271h-23.787l-70.108-70.108C383.967,192.669,391,179.642,391,165c0-19.556-12.539-36.239-30-42.43v-5.151
			c17.459-6.192,30-22.865,30-42.42c0-24.813-20.187-45-45-45H117.42C111.228,12.541,94.555,0,75,0C50.187,0,30,20.187,30,45v379.58
			C12.541,430.772,0,447.445,0,467v30c0,8.284,6.716,15,15,15h120c8.284,0,15-6.716,15-15v-30c0-19.555-12.541-36.228-30-42.42V120
			h211v15c0,8.284,6.716,15,15,15c8.271,0,15,6.729,15,15s-6.729,15-15,15s-15-6.729-15-15c0-8.284-6.716-15-15-15s-15,6.716-15,15
			c0,14.689,7.076,27.754,17.996,35.972L249.738,271H225c-24.813,0-45,20.187-45,45v151c0,24.813,20.187,45,45,45h242
			c24.813,0,45-20.187,45-45V316C512,291.187,491.813,271,467,271z M60,45c0-8.271,6.729-15,15-15s15,6.729,15,15v377H60V45z
			 M120,482H30v-15c0-8.271,6.729-15,15-15h60c8.271,0,15,6.729,15,15V482z M303.58,90H120V59.9h183.58
			C301.915,64.595,301,69.742,301,75S301.915,85.305,303.58,90z M346,90c-8.271,0-15-6.729-15-15s6.729-15,15-15s15,6.729,15,15
			S354.271,90,346,90z M346.059,216.272L400.787,271H291.932L346.059,216.272z M210,316c0-8.271,6.729-15,15-15h197v30H210V316z
			 M482,467c0,8.271-6.729,15-15,15H225c-8.271,0-15-6.729-15-15V361h272V467z M482,331h-30v-30h15c8.271,0,15,6.729,15,15V331z"/>
	</g>
</g>
<g>
</g>
<g>
</g>
<g>
</g>
<g>
</g>
<g>
</g>
<g>
</g>
<g>
</g>
<g>
</g>
<g>
</g>
<g>
</g>
<g>
</g>
<g>
</g>
<g>
</g>
<g>
</g>
<g>
</g>
</svg>
