<?xml version="1.0" encoding="iso-8859-1"?>
<!-- Generator: Adobe Illustrator 19.0.0, SVG Export Plug-In . SVG Version: 6.00 Build 0)  -->
<svg version="1.1" id="Capa_1" xmlns="http://www.w3.org/2000/svg" xmlns:xlink="http://www.w3.org/1999/xlink" x="0px" y="0px"
	 viewBox="0 0 511.999 511.999" style="enable-background:new 0 0 511.999 511.999;" xml:space="preserve">
<path style="fill:#FFD400;" d="M132.578,482.209L22.556,510.706L1.342,489.491L29.9,379.531c1.06-4.455,4.029-8.274,8.274-10.395
	l86.859-44.429l62.37,62.37l-44.429,86.859C140.852,478.18,137.034,481.149,132.578,482.209z"/>
<path style="fill:#FDBF00;" d="M142.973,473.935c-2.121,4.244-5.939,7.214-10.395,8.274L22.556,510.706l-10.608-10.608
	l144.27-144.207l31.185,31.185L142.973,473.935z"/>
<path style="fill:#804231;" d="M502.611,9.44C485.133-8.045,451.99-1.287,401.291,30.1
	c-43.023,26.635-93.681,68.267-142.642,117.228c-60.903,60.902-83.125,96.441-114.648,154.133c0.776,0.634,1.526,1.312,2.246,2.031
	l62.37,62.369c0.862,0.862,1.642,1.779,2.38,2.72c14.862-9.271,25.192-14.762,34.91-19.927
	c18.835-10.011,33.717-17.92,63.102-43.336c6.17-5.336,7.206-14.771,1.884-20.953c-5.065-5.884-4.703-14.86,0.792-20.355
	l106.069-106.07l0.007,0.003c12.822,7.014,28.878,3.506,37.573-8.242c26.073-35.23,43.49-65.276,51.536-88.801
	C514.857,37.557,513.421,20.242,502.611,9.44z"/>
<path style="fill:#663325;" d="M455.335,149.701c26.073-35.23,43.49-65.276,51.536-88.801c7.985-23.343,6.549-40.658-4.26-51.46
	c-0.001,0-0.001-0.001-0.002-0.002L177.402,334.646l31.216,31.216c0.862,0.862,1.642,1.779,2.38,2.72
	c14.862-9.271,25.192-14.762,34.91-19.927c18.835-10.011,33.717-17.92,63.102-43.336c6.17-5.336,7.206-14.771,1.884-20.953
	c-5.065-5.884-4.703-14.86,0.792-20.355l106.069-106.07l0.007,0.003C430.584,164.957,446.64,161.449,455.335,149.701z"/>
<path style="fill:#C4B3AF;" d="M449.318,188.595L345.024,296.426c-1.947,2.012-4.109,3.689-6.407,5.037
	c-11.332,6.64-26.118,5.236-36.009-4.33c-0.64-0.62-1.241-1.26-1.812-1.92c-10.106-11.624-9.8-29.233,1.105-40.507l104.285-107.82
	c0,0,14.667-15.171,31.604-32.679c5.827-6.023,15.883-4.973,20.131,2.251c0.027,0.046,0.054,0.092,0.081,0.138
	C471.261,139.239,468.462,168.802,449.318,188.595z"/>
<path style="fill:#DFD7D5;" d="M216.466,401.716c-11.668,11.668-30.761,11.668-42.429,0l-63.644-63.644
	c-11.668-11.668-11.668-30.761,0-42.429c11.668-11.668,30.761-11.668,42.429,0l63.644,63.644
	C228.135,370.954,228.135,390.048,216.466,401.716z"/>
<path style="fill:#FF9F00;" d="M97.786,435.538l-75.23,75.168l-4.455,1.06c-5.091,0.849-9.972-0.636-13.578-4.242
	s-5.091-8.487-4.242-13.578l1.06-4.455l75.23-75.168c5.94-5.94,15.274-5.94,21.214,0
	C103.727,420.265,103.727,429.597,97.786,435.538z"/>
<path style="fill:#FF7816;" d="M97.786,435.538l-75.23,75.168l-4.455,1.06c-5.091,0.849-9.972-0.636-13.578-4.242l93.263-93.201
	C103.727,420.265,103.727,429.597,97.786,435.538z"/>
<path style="fill:#C4B3AF;" d="M216.466,401.716c-11.668,11.668-30.761,11.668-42.429,0l-31.822-31.822l42.429-42.429l31.822,31.822
	C228.135,370.954,228.135,390.048,216.466,401.716z"/>
<g>
</g>
<g>
</g>
<g>
</g>
<g>
</g>
<g>
</g>
<g>
</g>
<g>
</g>
<g>
</g>
<g>
</g>
<g>
</g>
<g>
</g>
<g>
</g>
<g>
</g>
<g>
</g>
<g>
</g>
</svg>
