<?xml version="1.0" encoding="iso-8859-1"?>
<!-- Generator: Adobe Illustrator 19.0.0, SVG Export Plug-In . SVG Version: 6.00 Build 0)  -->
<svg xmlns="http://www.w3.org/2000/svg" xmlns:xlink="http://www.w3.org/1999/xlink" version="1.1" id="Layer_1" x="0px" y="0px" viewBox="0 0 512 512" style="enable-background:new 0 0 512 512;" xml:space="preserve" width="512" height="512">
<g>
	<path d="M508.365,246.21C444.991,172.637,353.008,130.441,256,130.441S67.009,172.637,3.635,246.21   c-4.846,5.626-4.846,13.953,0,19.579C67.009,339.363,158.992,381.559,256,381.559s188.991-42.196,252.365-115.77   C513.211,260.163,513.211,251.837,508.365,246.21z M170.809,256c0-46.975,38.216-85.191,85.191-85.191s85.191,38.216,85.191,85.191   S302.974,341.191,256,341.191S170.809,302.974,170.809,256z M371.191,256c0-33.96-14.776-64.531-38.232-85.632   C387.572,184.707,437.52,214.163,476.828,256c-39.308,41.837-89.255,71.293-143.869,85.632   C356.415,320.531,371.191,289.96,371.191,256z M179.041,170.367c-23.456,21.101-38.232,51.672-38.232,85.632   s14.776,64.531,38.232,85.632C124.427,327.293,74.48,297.836,35.172,256C74.48,214.163,124.427,184.707,179.041,170.367z"/>
	<path d="M256,205.767c-27.699,0-50.233,22.534-50.233,50.233s22.534,50.233,50.233,50.233s50.233-22.534,50.233-50.233   S283.699,205.767,256,205.767z M256,276.233c-11.156,0-20.233-9.077-20.233-20.233s9.077-20.233,20.233-20.233   s20.233,9.077,20.233,20.233S267.156,276.233,256,276.233z"/>
</g>















</svg>
